<svg xmlns="http://www.w3.org/2000/svg"  viewBox="0 0 48 48" width="144px" height="144px"><linearGradient id="SVGID_1_" x1="40.255" x2="12.634" y1="7.745" y2="35.366" gradientUnits="userSpaceOnUse"><stop offset="0" stop-color="#60affe"/><stop offset=".033" stop-color="#6ab4fe"/><stop offset=".197" stop-color="#97cbfe"/><stop offset=".362" stop-color="#bddeff"/><stop offset=".525" stop-color="#daecff"/><stop offset=".687" stop-color="#eef7ff"/><stop offset=".846" stop-color="#fbfdff"/><stop offset="1" stop-color="#fff"/></linearGradient><path fill="url(#SVGID_1_)" d="M28.672,5.5H12.5c-1.657,0-3,1.343-3,3v31c0,1.657,1.343,3,3,3h23c1.657,0,3-1.343,3-3V15.328	c0-0.53-0.211-1.039-0.586-1.414l-7.828-7.828C29.711,5.711,29.202,5.5,28.672,5.5z"/><path fill="none" stroke="#2e9bfe" stroke-linecap="round" stroke-linejoin="round" stroke-miterlimit="10" stroke-width="3" d="M22.074,42.5H35.5c1.657,0,3-1.343,3-3v-25h-7c-1.105,0-2-0.895-2-2v-7"/><path fill="none" stroke="#2e9bfe" stroke-linecap="round" stroke-linejoin="round" stroke-miterlimit="10" stroke-width="3" d="M24,5.5H12.5c-1.657,0-3,1.343-3,3v31c0,1.657,1.343,3,3,3h3.862"/><line x1="38.5" x2="29.5" y1="14.5" y2="5.5" fill="none" stroke="#2e9bfe" stroke-linecap="round" stroke-linejoin="round" stroke-miterlimit="10" stroke-width="3"/></svg>